<?xml version="1.0" encoding="UTF-8" ?>
<!DOCTYPE svg PUBLIC "-//W3C//DTD SVG 1.1//EN" "http://www.w3.org/Graphics/SVG/1.1/DTD/svg11.dtd">
<svg width="150pt" height="225pt" viewBox="0 0 150 225" version="1.1" xmlns="http://www.w3.org/2000/svg">
<g id="#ffffffff">
<path fill="#ffffff" opacity="1.00" d=" M 0.00 0.00 L 150.00 0.00 L 150.00 225.00 L 0.00 225.00 L 0.00 0.00 M 70.10 49.08 C 54.23 58.23 38.34 67.33 22.49 76.49 C 19.43 78.60 17.57 82.35 17.79 86.06 C 17.80 103.69 17.78 121.33 17.75 138.97 C 17.64 140.95 18.58 142.76 19.21 144.59 L 19.28 144.52 C 20.24 145.96 21.45 147.23 22.96 148.09 C 28.93 151.50 34.87 154.95 40.83 158.36 C 50.53 163.87 60.17 169.50 69.86 175.03 C 73.14 176.99 77.56 176.86 80.77 174.80 C 96.44 165.79 112.13 156.79 127.79 147.76 C 129.02 146.91 130.32 145.91 130.79 144.42 L 130.97 144.57 C 131.69 142.79 132.70 141.02 132.61 139.04 C 132.60 121.02 132.60 103.00 132.60 84.99 C 132.65 83.16 131.86 81.47 131.07 79.88 C 129.85 77.78 127.88 76.31 125.76 75.21 C 110.51 66.47 95.23 57.74 79.97 49.00 C 76.93 47.35 73.10 47.36 70.10 49.08 Z" />
<path fill="#ffffff" opacity="1.00" d=" M 56.63 78.55 C 65.65 73.54 76.73 72.51 86.56 75.61 C 95.57 78.48 103.59 84.68 108.21 92.99 C 102.81 96.22 97.30 99.25 91.89 102.47 C 89.20 98.61 85.57 95.21 80.95 93.89 C 72.69 90.92 62.77 94.93 58.53 102.53 C 55.09 108.32 55.08 115.97 58.62 121.72 C 61.70 126.69 67.06 130.42 72.96 130.86 C 80.31 131.92 87.98 127.96 91.66 121.54 C 97.26 124.68 102.80 127.92 108.34 131.15 C 103.06 140.04 94.17 146.78 84.07 149.10 C 74.78 151.46 64.64 149.98 56.31 145.30 C 50.40 141.94 45.33 137.07 41.95 131.16 C 37.60 123.60 35.75 114.55 37.25 105.93 C 39.02 94.46 46.42 84.05 56.63 78.55 Z" />
<path fill="#ffffff" opacity="1.00" d=" M 99.78 101.32 C 100.80 101.17 101.83 101.13 102.87 101.20 C 102.81 102.87 102.58 104.52 102.50 106.18 C 103.40 106.18 105.20 106.17 106.10 106.17 C 106.27 104.52 106.39 102.88 106.57 101.24 C 107.62 101.18 108.66 101.17 109.71 101.20 C 109.57 102.86 109.31 104.50 109.23 106.17 C 109.94 106.19 111.37 106.24 112.09 106.26 C 112.95 108.61 111.01 109.82 108.88 109.16 C 108.72 110.60 108.62 112.04 108.49 113.49 C 109.17 113.51 110.51 113.55 111.19 113.56 C 111.18 114.29 111.18 115.76 111.18 116.49 C 110.46 116.49 109.00 116.50 108.27 116.50 C 107.91 118.26 107.80 120.05 107.65 121.84 C 106.87 121.85 105.31 121.88 104.53 121.90 C 104.61 120.10 104.90 118.31 104.87 116.51 C 103.70 116.50 102.53 116.51 101.37 116.54 C 101.18 118.34 101.11 120.15 100.72 121.92 C 99.97 121.90 98.48 121.85 97.73 121.83 C 97.80 120.07 98.17 118.35 98.31 116.61 C 97.60 116.58 96.18 116.52 95.47 116.50 C 95.47 115.76 95.47 114.27 95.47 113.53 C 96.25 113.52 97.79 113.51 98.57 113.50 C 98.72 112.06 98.82 110.61 98.92 109.16 C 98.29 109.10 97.02 108.96 96.39 108.89 C 96.37 108.22 96.34 106.90 96.32 106.23 C 97.05 106.22 98.51 106.18 99.24 106.17 C 99.48 104.55 99.62 102.93 99.78 101.32 M 102.26 109.11 C 102.01 110.55 101.82 111.99 101.69 113.44 C 102.88 113.58 104.09 113.53 105.29 113.49 C 105.47 112.05 105.63 110.61 105.79 109.17 C 104.61 109.14 103.43 109.12 102.26 109.11 Z" />
</g>
<g id="#9d72d9ff">
<path fill="#9d72d9" opacity="1.00" d=" M 70.10 49.08 C 73.10 47.36 76.93 47.35 79.97 49.00 C 95.23 57.74 110.51 66.47 125.76 75.21 C 127.88 76.31 129.85 77.78 131.07 79.88 C 123.33 84.02 115.75 88.49 108.21 92.99 C 103.59 84.68 95.57 78.48 86.56 75.61 C 76.73 72.51 65.65 73.54 56.63 78.55 C 46.42 84.05 39.02 94.46 37.25 105.93 C 35.75 114.55 37.60 123.60 41.95 131.16 C 34.39 135.59 26.46 139.53 19.28 144.52 L 19.21 144.59 C 18.58 142.76 17.64 140.95 17.75 138.97 C 17.78 121.33 17.80 103.69 17.79 86.06 C 17.57 82.35 19.43 78.60 22.49 76.49 C 38.34 67.33 54.23 58.23 70.10 49.08 Z" />
<path fill="#9d72d9" opacity="1.00" d=" M 58.53 102.53 C 62.77 94.93 72.69 90.92 80.95 93.89 C 85.57 95.21 89.20 98.61 91.89 102.47 C 85.75 105.64 79.80 109.18 73.89 112.75 C 68.85 115.82 63.59 118.53 58.62 121.72 C 55.08 115.97 55.09 108.32 58.53 102.53 Z" />
</g>
<g id="#38008eff">
<path fill="#38008e" opacity="1.00" d=" M 108.21 92.99 C 115.75 88.49 123.33 84.02 131.07 79.88 C 131.86 81.47 132.65 83.16 132.60 84.99 C 132.60 103.00 132.60 121.02 132.61 139.04 C 132.70 141.02 131.69 142.79 130.97 144.57 L 130.79 144.42 C 123.96 139.01 115.59 135.98 108.34 131.15 C 102.80 127.92 97.26 124.68 91.66 121.54 C 85.66 118.75 80.24 114.78 73.89 112.75 C 79.80 109.18 85.75 105.64 91.89 102.47 C 97.30 99.25 102.81 96.22 108.21 92.99 M 99.78 101.32 C 99.62 102.93 99.48 104.55 99.24 106.17 C 98.51 106.18 97.05 106.22 96.32 106.23 C 96.34 106.90 96.37 108.22 96.39 108.89 C 97.02 108.96 98.29 109.10 98.92 109.16 C 98.82 110.61 98.72 112.06 98.57 113.50 C 97.79 113.51 96.25 113.52 95.47 113.53 C 95.47 114.27 95.47 115.76 95.47 116.50 C 96.18 116.52 97.60 116.58 98.31 116.61 C 98.17 118.35 97.80 120.07 97.73 121.83 C 98.48 121.85 99.97 121.90 100.72 121.92 C 101.11 120.15 101.18 118.34 101.37 116.54 C 102.53 116.51 103.70 116.50 104.87 116.51 C 104.90 118.31 104.61 120.10 104.53 121.90 C 105.31 121.88 106.87 121.85 107.65 121.84 C 107.80 120.05 107.91 118.26 108.27 116.50 C 109.00 116.50 110.46 116.49 111.18 116.49 C 111.18 115.76 111.18 114.29 111.19 113.56 C 110.51 113.55 109.17 113.51 108.49 113.49 C 108.62 112.04 108.72 110.60 108.88 109.16 C 111.01 109.82 112.95 108.61 112.09 106.26 C 111.37 106.24 109.94 106.19 109.23 106.17 C 109.31 104.50 109.57 102.86 109.71 101.20 C 108.66 101.17 107.62 101.18 106.57 101.24 C 106.39 102.88 106.27 104.52 106.10 106.17 C 105.20 106.17 103.40 106.18 102.50 106.18 C 102.58 104.52 102.81 102.87 102.87 101.20 C 101.83 101.13 100.80 101.17 99.78 101.32 Z" />
<path fill="#38008e" opacity="1.00" d=" M 102.26 109.11 C 103.43 109.12 104.61 109.14 105.79 109.17 C 105.63 110.61 105.47 112.05 105.29 113.49 C 104.09 113.53 102.88 113.58 101.69 113.44 C 101.82 111.99 102.01 110.55 102.26 109.11 Z" />
<path fill="#38008e" opacity="1.00" d=" M 19.28 144.52 C 26.46 139.53 34.39 135.59 41.95 131.16 C 45.33 137.07 50.40 141.94 56.31 145.30 C 51.38 149.94 45.39 153.30 40.83 158.36 C 34.87 154.95 28.93 151.50 22.96 148.09 C 21.45 147.23 20.24 145.96 19.28 144.52 Z" />
</g>
<g id="#2c006dff">
<path fill="#2c006d" opacity="1.00" d=" M 58.62 121.72 C 63.59 118.53 68.85 115.82 73.89 112.75 C 80.24 114.78 85.66 118.75 91.66 121.54 C 87.98 127.96 80.31 131.92 72.96 130.86 C 67.06 130.42 61.70 126.69 58.62 121.72 Z" />
<path fill="#2c006d" opacity="1.00" d=" M 84.07 149.10 C 94.17 146.78 103.06 140.04 108.34 131.15 C 115.59 135.98 123.96 139.01 130.79 144.42 C 130.32 145.91 129.02 146.91 127.79 147.76 C 112.13 156.79 96.44 165.79 80.77 174.80 C 77.56 176.86 73.14 176.99 69.86 175.03 C 60.17 169.50 50.53 163.87 40.83 158.36 C 45.39 153.30 51.38 149.94 56.31 145.30 C 64.64 149.98 74.78 151.46 84.07 149.10 Z" />
</g>
</svg>
