<?xml version="1.0" encoding="UTF-8" ?>
<!DOCTYPE svg PUBLIC "-//W3C//DTD SVG 1.1//EN" "http://www.w3.org/Graphics/SVG/1.1/DTD/svg11.dtd">
<svg width="150pt" height="225pt" viewBox="0 0 150 225" version="1.1" xmlns="http://www.w3.org/2000/svg">
<g id="#fefefeff">
<path fill="#fefefe" opacity="1.00" d=" M 0.00 0.00 L 150.00 0.00 L 150.00 225.00 L 0.00 225.00 L 0.00 0.00 M 39.00 27.41 C 39.02 34.99 38.95 42.57 39.06 50.15 C 45.37 50.00 51.68 50.11 58.00 50.08 C 58.01 47.61 58.01 45.14 58.00 42.67 C 54.41 42.67 50.83 42.66 47.24 42.65 C 47.23 40.13 47.22 37.62 47.21 35.10 C 50.80 35.04 54.40 35.07 58.00 35.07 C 58.00 32.51 58.00 29.96 58.00 27.41 C 51.66 27.40 45.33 27.43 39.00 27.41 M 65.94 27.75 C 66.05 30.43 65.46 33.28 66.24 35.85 C 68.36 38.46 71.07 40.53 73.31 43.04 C 70.84 43.00 68.37 42.98 65.89 43.01 C 65.87 45.47 65.87 47.92 65.88 50.38 C 71.86 50.41 77.83 50.32 83.81 50.45 C 83.79 47.96 83.93 45.47 83.65 43.00 C 81.61 40.37 79.19 38.05 77.08 35.47 C 79.31 35.41 81.53 35.45 83.76 35.48 C 83.79 32.89 83.79 30.30 83.85 27.72 C 77.88 27.78 71.91 27.73 65.94 27.75 M 92.65 27.70 C 92.86 30.41 92.34 33.26 92.99 35.88 C 95.23 38.38 97.82 40.55 100.18 42.94 C 97.67 42.99 95.17 43.02 92.67 43.06 C 92.70 45.52 92.70 47.98 92.68 50.44 C 98.92 50.35 105.16 50.35 111.40 50.44 C 111.38 47.98 111.37 45.52 111.40 43.07 C 108.95 40.53 106.45 38.06 104.01 35.52 C 106.48 35.41 108.95 35.42 111.42 35.43 C 111.39 32.86 111.38 30.29 111.41 27.71 C 105.16 27.76 98.91 27.77 92.65 27.70 M 14.74 61.07 C 18.57 102.06 22.15 143.07 25.87 184.08 C 40.24 187.94 54.58 191.95 68.95 195.82 C 71.65 196.39 74.40 198.02 77.19 196.98 C 92.97 192.72 108.70 188.27 124.52 184.14 C 124.69 183.12 124.85 182.10 124.97 181.07 C 128.34 141.01 132.29 101.00 135.60 60.94 C 95.31 60.98 55.02 60.73 14.74 61.07 Z" />
<path fill="#fefefe" opacity="1.00" d=" M 37.17 86.27 C 62.34 86.10 87.51 86.34 112.68 85.98 C 112.97 91.05 112.20 96.09 111.75 101.12 C 99.99 106.12 88.28 111.24 76.54 116.30 C 87.83 116.54 99.13 116.22 110.42 116.47 C 109.01 131.81 107.75 147.16 106.38 162.50 C 97.06 165.74 87.39 167.84 78.01 170.89 C 75.33 172.18 72.62 170.63 70.02 169.98 C 61.49 167.54 52.97 165.08 44.39 162.83 C 43.33 155.00 42.84 147.10 42.06 139.24 C 47.13 139.26 52.21 139.22 57.28 139.30 C 57.57 143.27 57.85 147.25 58.38 151.20 C 64.20 152.43 69.82 154.74 75.68 155.63 C 81.23 154.30 86.69 152.62 92.21 151.14 C 92.60 144.55 93.49 138.00 93.82 131.40 C 87.67 131.42 81.53 131.42 75.38 131.39 C 64.09 131.30 52.79 131.31 41.50 131.39 C 40.91 126.27 40.13 121.15 40.30 115.98 C 52.45 111.51 64.13 105.85 76.32 101.48 C 63.77 100.81 51.18 101.36 38.61 101.17 C 38.34 96.18 37.66 91.23 37.17 86.27 Z" />
</g>
<g id="#010101ff">
<path fill="#010101" opacity="1.00" d=" M 39.00 27.41 C 45.33 27.43 51.66 27.40 58.00 27.41 C 58.00 29.96 58.00 32.51 58.00 35.07 C 54.40 35.07 50.80 35.04 47.21 35.10 C 47.22 37.62 47.23 40.13 47.24 42.65 C 50.83 42.66 54.41 42.67 58.00 42.67 C 58.01 45.14 58.01 47.61 58.00 50.08 C 51.68 50.11 45.37 50.00 39.06 50.15 C 38.95 42.57 39.02 34.99 39.00 27.41 Z" />
<path fill="#010101" opacity="1.00" d=" M 65.94 27.75 C 71.91 27.73 77.88 27.78 83.85 27.72 C 83.79 30.30 83.79 32.89 83.76 35.48 C 81.53 35.45 79.31 35.41 77.08 35.47 C 79.19 38.05 81.61 40.37 83.65 43.00 C 83.93 45.47 83.79 47.96 83.81 50.45 C 77.83 50.32 71.86 50.41 65.88 50.38 C 65.87 47.92 65.87 45.47 65.89 43.01 C 68.37 42.98 70.84 43.00 73.31 43.04 C 71.07 40.53 68.36 38.46 66.24 35.85 C 65.46 33.28 66.05 30.43 65.94 27.75 Z" />
<path fill="#010101" opacity="1.00" d=" M 92.65 27.70 C 98.91 27.77 105.16 27.76 111.41 27.71 C 111.38 30.29 111.39 32.86 111.42 35.43 C 108.95 35.42 106.48 35.41 104.01 35.52 C 106.45 38.06 108.95 40.53 111.40 43.07 C 111.37 45.52 111.38 47.98 111.40 50.44 C 105.16 50.35 98.92 50.35 92.68 50.44 C 92.70 47.98 92.70 45.52 92.67 43.06 C 95.17 43.02 97.67 42.99 100.18 42.94 C 97.82 40.55 95.23 38.38 92.99 35.88 C 92.34 33.26 92.86 30.41 92.65 27.70 Z" />
</g>
<g id="#0170baff">
<path fill="#0170ba" opacity="1.00" d=" M 14.74 61.07 C 55.02 60.73 95.31 60.98 135.60 60.94 C 132.29 101.00 128.34 141.01 124.97 181.07 C 124.85 182.10 124.69 183.12 124.52 184.14 C 108.70 188.27 92.97 192.72 77.19 196.98 C 74.40 198.02 71.65 196.39 68.95 195.82 C 54.58 191.95 40.24 187.94 25.87 184.08 C 22.15 143.07 18.57 102.06 14.74 61.07 M 75.18 70.94 C 75.18 75.76 75.14 80.57 75.08 85.39 C 85.07 85.85 95.07 85.61 105.06 85.62 C 107.58 85.74 110.28 84.99 112.68 85.98 C 87.51 86.34 62.34 86.10 37.17 86.27 C 37.66 91.23 38.34 96.18 38.61 101.17 C 51.18 101.36 63.77 100.81 76.32 101.48 C 64.13 105.85 52.45 111.51 40.30 115.98 C 40.13 121.15 40.91 126.27 41.50 131.39 C 52.79 131.31 64.09 131.30 75.38 131.39 C 75.15 139.45 74.64 147.62 75.68 155.63 C 69.82 154.74 64.20 152.43 58.38 151.20 C 57.85 147.25 57.57 143.27 57.28 139.30 C 52.21 139.22 47.13 139.26 42.06 139.24 C 42.84 147.10 43.33 155.00 44.39 162.83 C 52.97 165.08 61.49 167.54 70.02 169.98 C 72.62 170.63 75.33 172.18 78.01 170.89 C 77.03 171.34 76.06 171.82 75.11 172.34 C 75.14 177.25 75.15 182.17 75.18 187.08 C 83.29 185.06 91.26 182.49 99.38 180.44 C 104.78 178.90 110.36 177.86 115.53 175.57 C 118.15 140.60 121.96 105.71 124.53 70.75 C 108.08 71.08 91.63 70.78 75.18 70.94 Z" />
</g>
<g id="#28a9e0ff">
<path fill="#28a9e0" opacity="1.00" d=" M 75.18 70.94 C 91.63 70.78 108.08 71.08 124.53 70.75 C 121.96 105.71 118.15 140.60 115.53 175.57 C 110.36 177.86 104.78 178.90 99.38 180.44 C 91.26 182.49 83.29 185.06 75.18 187.08 C 75.15 182.17 75.14 177.25 75.11 172.34 C 76.06 171.82 77.03 171.34 78.01 170.89 C 87.39 167.84 97.06 165.74 106.38 162.50 C 107.75 147.16 109.01 131.81 110.42 116.47 C 99.13 116.22 87.83 116.54 76.54 116.30 C 88.28 111.24 99.99 106.12 111.75 101.12 C 112.20 96.09 112.97 91.05 112.68 85.98 C 110.28 84.99 107.58 85.74 105.06 85.62 C 95.07 85.61 85.07 85.85 75.08 85.39 C 75.14 80.57 75.18 75.76 75.18 70.94 Z" />
<path fill="#28a9e0" opacity="1.00" d=" M 75.38 131.39 C 81.53 131.42 87.67 131.42 93.82 131.40 C 93.49 138.00 92.60 144.55 92.21 151.14 C 86.69 152.62 81.23 154.30 75.68 155.63 C 74.64 147.62 75.15 139.45 75.38 131.39 Z" />
</g>
</svg>
