<?xml version="1.0" encoding="UTF-8" ?>
<!DOCTYPE svg PUBLIC "-//W3C//DTD SVG 1.1//EN" "http://www.w3.org/Graphics/SVG/1.1/DTD/svg11.dtd">
<svg width="150pt" height="225pt" viewBox="0 0 150 225" version="1.1" xmlns="http://www.w3.org/2000/svg">
<g id="#ffffffff">
<path fill="#ffffff" opacity="1.00" d=" M 0.00 0.00 L 150.00 0.00 L 150.00 225.00 L 0.00 225.00 L 0.00 0.00 M 31.69 37.00 C 31.69 43.74 31.69 50.48 31.69 57.23 C 33.97 57.23 36.24 57.23 38.51 57.23 C 38.52 54.92 38.51 52.62 38.51 50.32 C 40.57 50.32 42.62 50.32 44.67 50.32 C 44.68 52.62 44.67 54.92 44.68 57.23 C 46.89 57.23 49.11 57.23 51.32 57.23 C 51.33 50.48 51.32 43.74 51.33 37.00 C 49.11 37.00 46.89 37.00 44.67 37.00 C 44.67 39.23 44.67 41.45 44.67 43.67 C 42.62 43.67 40.57 43.67 38.51 43.67 C 38.51 41.44 38.51 39.22 38.51 37.00 C 36.24 37.00 33.96 37.00 31.69 37.00 M 54.39 37.01 C 54.40 39.23 54.40 41.46 54.40 43.68 C 56.38 43.68 58.36 43.69 60.34 43.69 C 60.35 48.20 60.34 52.70 60.35 57.21 C 62.47 57.21 64.60 57.25 66.72 57.32 C 67.53 52.82 66.80 48.25 66.86 43.72 C 68.86 43.70 70.86 43.68 72.86 43.68 C 72.87 41.45 72.87 39.23 72.87 37.00 C 66.71 37.00 60.55 36.99 54.39 37.01 M 76.02 37.00 C 76.03 43.74 76.02 50.48 76.03 57.22 C 78.23 57.22 80.44 57.22 82.64 57.22 C 82.64 53.94 82.63 50.65 82.68 47.37 C 84.24 49.67 85.74 52.02 87.24 54.37 C 88.92 51.99 90.50 49.54 92.04 47.06 C 92.07 50.45 92.06 53.84 92.06 57.22 C 94.28 57.22 96.51 57.22 98.73 57.22 C 98.74 50.49 98.73 43.75 98.74 37.01 C 96.43 37.00 94.11 36.91 91.80 37.06 C 89.98 39.17 88.92 41.83 87.24 44.05 C 85.94 41.65 84.51 39.30 83.02 37.02 C 80.68 37.00 78.35 37.00 76.02 37.00 M 102.16 37.00 C 102.17 43.74 102.16 50.49 102.17 57.23 C 107.59 57.23 113.01 57.23 118.43 57.22 C 118.43 54.96 118.43 52.70 118.44 50.43 C 115.22 50.43 112.01 50.43 108.80 50.40 C 108.80 45.94 108.79 41.47 108.80 37.00 C 106.59 37.00 104.37 37.00 102.16 37.00 M 21.83 66.34 C 24.91 102.55 28.35 138.73 31.40 174.94 C 45.94 178.79 60.38 183.02 74.91 186.91 C 89.45 182.96 103.94 178.81 118.49 174.90 C 121.54 138.70 124.83 102.52 128.16 66.34 C 92.71 66.33 57.27 66.34 21.83 66.34 Z" />
<path fill="#ffffff" opacity="1.00" d=" M 74.85 88.56 C 86.00 88.57 97.15 88.55 108.30 88.58 C 107.85 92.96 107.36 97.35 107.02 101.75 C 96.29 101.88 85.56 101.78 74.83 101.81 C 74.80 97.39 74.82 92.98 74.85 88.56 Z" />
<path fill="#ffffff" opacity="1.00" d=" M 74.85 115.58 C 85.18 115.58 95.50 115.57 105.83 115.58 C 104.60 129.15 103.29 142.72 102.25 156.31 C 93.63 158.81 84.92 161.02 76.32 163.61 C 73.50 159.55 75.09 154.40 75.46 149.86 C 80.26 148.72 85.00 147.36 89.75 146.01 C 90.42 140.31 90.70 134.57 91.19 128.86 C 85.73 128.84 80.28 128.85 74.82 128.85 C 74.81 124.42 74.81 120.00 74.85 115.58 Z" />
</g>
<g id="#000000ff">
<path fill="#000000" opacity="1.00" d=" M 31.69 37.00 C 33.96 37.00 36.24 37.00 38.51 37.00 C 38.51 39.22 38.51 41.44 38.51 43.67 C 40.57 43.67 42.62 43.67 44.67 43.67 C 44.67 41.45 44.67 39.23 44.67 37.00 C 46.89 37.00 49.11 37.00 51.33 37.00 C 51.32 43.74 51.33 50.48 51.32 57.23 C 49.11 57.23 46.89 57.23 44.68 57.23 C 44.67 54.92 44.68 52.62 44.67 50.32 C 42.62 50.32 40.57 50.32 38.51 50.32 C 38.51 52.62 38.52 54.92 38.51 57.23 C 36.24 57.23 33.97 57.23 31.69 57.23 C 31.69 50.48 31.69 43.74 31.69 37.00 Z" />
<path fill="#000000" opacity="1.00" d=" M 54.39 37.01 C 60.55 36.99 66.71 37.00 72.87 37.00 C 72.87 39.23 72.87 41.45 72.86 43.68 C 70.86 43.68 68.86 43.70 66.86 43.72 C 66.80 48.25 67.53 52.82 66.72 57.32 C 64.60 57.25 62.47 57.21 60.35 57.21 C 60.34 52.70 60.35 48.20 60.34 43.69 C 58.36 43.69 56.38 43.68 54.40 43.68 C 54.40 41.46 54.40 39.23 54.39 37.01 Z" />
<path fill="#000000" opacity="1.00" d=" M 76.02 37.00 C 78.35 37.00 80.68 37.00 83.02 37.02 C 84.51 39.30 85.94 41.65 87.24 44.05 C 88.92 41.83 89.98 39.17 91.80 37.06 C 94.11 36.91 96.43 37.00 98.74 37.01 C 98.73 43.75 98.74 50.49 98.73 57.22 C 96.51 57.22 94.28 57.22 92.06 57.22 C 92.06 53.84 92.07 50.45 92.04 47.06 C 90.50 49.54 88.92 51.99 87.24 54.37 C 85.74 52.02 84.24 49.67 82.68 47.37 C 82.63 50.65 82.64 53.94 82.64 57.22 C 80.44 57.22 78.23 57.22 76.03 57.22 C 76.02 50.48 76.03 43.74 76.02 37.00 Z" />
<path fill="#000000" opacity="1.00" d=" M 102.16 37.00 C 104.37 37.00 106.59 37.00 108.80 37.00 C 108.79 41.47 108.80 45.94 108.80 50.40 C 112.01 50.43 115.22 50.43 118.44 50.43 C 118.43 52.70 118.43 54.96 118.43 57.22 C 113.01 57.23 107.59 57.23 102.17 57.23 C 102.16 50.49 102.17 43.74 102.16 37.00 Z" />
</g>
<g id="#e44d26ff">
<path fill="#e44d26" opacity="1.00" d=" M 21.83 66.34 C 57.27 66.34 92.71 66.33 128.16 66.34 C 124.83 102.52 121.54 138.70 118.49 174.90 C 103.94 178.81 89.45 182.96 74.91 186.91 C 60.38 183.02 45.94 178.79 31.40 174.94 C 28.35 138.73 24.91 102.55 21.83 66.34 M 75.19 75.34 C 74.74 79.74 74.74 84.15 74.85 88.56 C 63.76 88.56 52.66 88.56 41.56 88.57 C 42.66 101.97 44.23 115.33 44.95 128.76 C 54.90 128.97 64.86 128.80 74.82 128.85 C 74.80 135.85 75.16 142.87 74.54 149.86 C 69.69 148.85 64.94 147.39 60.17 146.05 C 59.74 142.56 59.35 139.06 59.05 135.56 C 54.64 135.51 50.22 135.53 45.80 135.54 C 46.59 142.45 46.78 149.42 47.60 156.33 C 56.76 158.82 65.86 161.60 75.07 163.84 C 74.66 168.44 74.75 173.06 75.14 177.66 C 86.66 174.19 98.46 171.65 109.85 167.78 C 110.74 163.90 110.84 159.91 111.14 155.96 C 113.08 135.64 114.71 115.30 116.64 94.98 C 116.84 88.41 118.37 81.92 117.97 75.34 C 103.71 75.26 89.45 75.23 75.19 75.34 Z" />
<path fill="#e44d26" opacity="1.00" d=" M 56.25 101.81 C 62.44 101.81 68.63 101.81 74.83 101.81 C 74.87 106.40 74.88 110.99 74.85 115.58 C 68.99 115.57 63.13 115.57 57.27 115.59 C 56.83 111.00 56.55 106.41 56.25 101.81 Z" />
</g>
<g id="#f16529ff">
<path fill="#f16529" opacity="1.00" d=" M 75.19 75.34 C 89.45 75.23 103.71 75.26 117.97 75.34 C 118.37 81.92 116.84 88.41 116.64 94.98 C 114.71 115.30 113.08 135.64 111.14 155.96 C 110.84 159.91 110.74 163.90 109.85 167.78 C 98.46 171.65 86.66 174.19 75.14 177.66 C 74.75 173.06 74.66 168.44 75.07 163.84 C 75.39 163.79 76.01 163.67 76.32 163.61 C 84.92 161.02 93.63 158.81 102.25 156.31 C 103.29 142.72 104.60 129.15 105.83 115.58 C 95.50 115.57 85.18 115.58 74.85 115.58 C 74.88 110.99 74.87 106.40 74.83 101.81 C 85.56 101.78 96.29 101.88 107.02 101.75 C 107.36 97.35 107.85 92.96 108.30 88.58 C 97.15 88.55 86.00 88.57 74.85 88.56 C 74.74 84.15 74.74 79.74 75.19 75.34 Z" />
<path fill="#f16529" opacity="1.00" d=" M 74.82 128.85 C 80.28 128.85 85.73 128.84 91.19 128.86 C 90.70 134.57 90.42 140.31 89.75 146.01 C 85.00 147.36 80.26 148.72 75.46 149.86 C 75.23 149.86 74.77 149.86 74.54 149.86 C 75.16 142.87 74.80 135.85 74.82 128.85 Z" />
</g>
<g id="#ebebebff">
<path fill="#ebebeb" opacity="1.00" d=" M 41.56 88.57 C 52.66 88.56 63.76 88.56 74.85 88.56 C 74.82 92.98 74.80 97.39 74.83 101.81 C 68.63 101.81 62.44 101.81 56.25 101.81 C 56.55 106.41 56.83 111.00 57.27 115.59 C 63.13 115.57 68.99 115.57 74.85 115.58 C 74.81 120.00 74.81 124.42 74.82 128.85 C 64.86 128.80 54.90 128.97 44.95 128.76 C 44.23 115.33 42.66 101.97 41.56 88.57 Z" />
<path fill="#ebebeb" opacity="1.00" d=" M 45.80 135.54 C 50.22 135.53 54.64 135.51 59.05 135.56 C 59.35 139.06 59.74 142.56 60.17 146.05 C 64.94 147.39 69.69 148.85 74.54 149.86 C 74.77 149.86 75.23 149.86 75.46 149.86 C 75.09 154.40 73.50 159.55 76.32 163.61 C 76.01 163.67 75.39 163.79 75.07 163.84 C 65.86 161.60 56.76 158.82 47.60 156.33 C 46.78 149.42 46.59 142.45 45.80 135.54 Z" />
</g>
</svg>
