<?xml version="1.0" encoding="UTF-8" ?>
<!DOCTYPE svg PUBLIC "-//W3C//DTD SVG 1.1//EN" "http://www.w3.org/Graphics/SVG/1.1/DTD/svg11.dtd">
<svg width="150pt" height="225pt" viewBox="0 0 150 225" version="1.1" xmlns="http://www.w3.org/2000/svg">
<g id="#ffffffff">
<path fill="#ffffff" opacity="1.00" d=" M 0.00 0.00 L 150.00 0.00 L 150.00 225.00 L 0.00 225.00 L 0.00 0.00 M 64.21 37.43 C 64.18 42.17 64.17 46.91 64.21 51.64 C 61.25 51.80 58.29 51.79 55.33 51.72 C 55.22 53.59 55.14 55.46 55.11 57.33 C 59.82 57.34 64.54 57.34 69.26 57.33 C 69.26 50.71 69.26 44.09 69.25 37.48 C 67.57 37.46 65.89 37.45 64.21 37.43 M 72.21 37.44 C 72.31 41.58 71.42 45.74 72.17 49.86 C 76.63 49.84 81.08 49.86 85.54 49.84 C 85.59 50.31 85.69 51.26 85.75 51.74 C 81.31 51.77 76.88 51.81 72.45 51.71 C 71.86 53.57 71.75 55.52 72.27 57.42 C 78.38 57.25 84.49 57.37 90.60 57.34 C 90.61 53.14 90.68 48.93 90.51 44.73 C 86.01 44.75 81.52 44.79 77.03 44.70 C 77.17 44.24 77.44 43.32 77.58 42.87 C 81.93 42.73 86.28 42.88 90.63 42.82 C 90.61 41.03 90.60 39.24 90.59 37.44 C 84.46 37.45 78.34 37.46 72.21 37.44 M 19.48 66.76 C 19.41 71.98 20.49 77.12 20.59 82.33 C 23.86 113.16 26.05 144.07 28.74 174.94 C 34.78 177.01 41.14 177.85 47.20 179.80 C 55.44 182.57 63.88 184.78 72.33 186.75 C 81.15 185.04 89.87 182.46 98.43 179.69 C 104.38 177.85 110.59 176.97 116.48 174.91 C 119.51 138.88 122.58 102.86 125.83 66.84 C 90.38 66.62 54.93 66.80 19.48 66.76 Z" />
<path fill="#ffffff" opacity="1.00" d=" M 57.17 89.10 C 60.97 89.09 64.77 89.08 68.57 89.11 C 68.53 113.95 68.62 138.79 68.52 163.64 C 63.29 161.98 57.90 160.86 52.58 159.51 C 47.23 158.12 42.12 155.75 36.59 155.13 C 36.23 151.10 36.40 147.06 36.38 143.02 C 43.40 144.02 49.98 147.04 57.03 147.92 C 56.80 128.34 56.57 108.70 57.17 89.10 Z" />
<path fill="#ffffff" opacity="1.00" d=" M 76.57 89.14 C 87.83 89.10 99.08 88.99 110.33 89.20 C 109.81 92.93 109.57 96.69 109.29 100.44 C 102.33 100.60 95.38 100.47 88.42 100.51 C 88.34 107.29 88.40 114.07 88.37 120.86 C 94.84 120.35 101.24 119.21 107.64 118.19 C 106.33 130.61 104.89 143.03 104.42 155.51 C 95.47 159.25 85.87 160.90 76.59 163.59 C 76.57 159.59 76.58 155.59 76.56 151.59 C 82.32 149.31 88.56 148.59 94.31 146.35 C 94.37 141.33 95.45 136.40 95.61 131.38 C 89.25 132.27 82.90 133.26 76.59 134.44 C 76.56 119.34 76.59 104.24 76.57 89.14 Z" />
</g>
<g id="#000000ff">
<path fill="#000000" opacity="1.00" d=" M 64.21 37.43 C 65.89 37.45 67.57 37.46 69.25 37.48 C 69.26 44.09 69.26 50.71 69.26 57.33 C 64.54 57.34 59.82 57.34 55.11 57.33 C 55.14 55.46 55.22 53.59 55.33 51.72 C 58.29 51.79 61.25 51.80 64.21 51.64 C 64.17 46.91 64.18 42.17 64.21 37.43 Z" />
<path fill="#000000" opacity="1.00" d=" M 72.21 37.44 C 78.34 37.46 84.46 37.45 90.59 37.44 C 90.60 39.24 90.61 41.03 90.63 42.82 C 86.28 42.88 81.93 42.73 77.58 42.87 C 77.44 43.32 77.17 44.24 77.03 44.70 C 81.52 44.79 86.01 44.75 90.51 44.73 C 90.68 48.93 90.61 53.14 90.60 57.34 C 84.49 57.37 78.38 57.25 72.27 57.42 C 71.75 55.52 71.86 53.57 72.45 51.71 C 76.88 51.81 81.31 51.77 85.75 51.74 C 85.69 51.26 85.59 50.31 85.54 49.84 C 81.08 49.86 76.63 49.84 72.17 49.86 C 71.42 45.74 72.31 41.58 72.21 37.44 Z" />
</g>
<g id="#e8c932ff">
<path fill="#e8c932" opacity="1.00" d=" M 19.48 66.76 C 54.93 66.80 90.38 66.62 125.83 66.84 C 122.58 102.86 119.51 138.88 116.48 174.91 C 110.59 176.97 104.38 177.85 98.43 179.69 C 89.87 182.46 81.15 185.04 72.33 186.75 C 63.88 184.78 55.44 182.57 47.20 179.80 C 41.14 177.85 34.78 177.01 28.74 174.94 C 26.05 144.07 23.86 113.16 20.59 82.33 C 20.49 77.12 19.41 71.98 19.48 66.76 M 73.06 76.11 C 72.85 77.72 72.65 79.34 72.63 80.97 C 72.72 107.64 72.65 134.32 72.68 160.99 C 72.72 166.38 72.41 171.78 72.98 177.16 C 77.81 177.05 82.32 175.15 86.89 173.80 C 93.38 171.68 100.10 170.38 106.68 168.62 C 110.24 144.34 110.84 119.75 113.46 95.37 C 113.88 88.95 115.27 82.59 114.95 76.14 C 109.63 75.65 104.28 75.89 98.95 75.87 C 90.32 76.01 81.68 75.54 73.06 76.11 M 57.17 89.10 C 56.57 108.70 56.80 128.34 57.03 147.92 C 49.98 147.04 43.40 144.02 36.38 143.02 C 36.40 147.06 36.23 151.10 36.59 155.13 C 42.12 155.75 47.23 158.12 52.58 159.51 C 57.90 160.86 63.29 161.98 68.52 163.64 C 68.62 138.79 68.53 113.95 68.57 89.11 C 64.77 89.08 60.97 89.09 57.17 89.10 Z" />
</g>
<g id="#fedd25ff">
<path fill="#fedd25" opacity="1.00" d=" M 73.06 76.11 C 81.68 75.54 90.32 76.01 98.95 75.87 C 104.28 75.89 109.63 75.65 114.95 76.14 C 115.27 82.59 113.88 88.95 113.46 95.37 C 110.84 119.75 110.24 144.34 106.68 168.62 C 100.10 170.38 93.38 171.68 86.89 173.80 C 82.32 175.15 77.81 177.05 72.98 177.16 C 72.41 171.78 72.72 166.38 72.68 160.99 C 72.65 134.32 72.72 107.64 72.63 80.97 C 72.65 79.34 72.85 77.72 73.06 76.11 M 76.57 89.14 C 76.59 104.24 76.56 119.34 76.59 134.44 C 82.90 133.26 89.25 132.27 95.61 131.38 C 95.45 136.40 94.37 141.33 94.31 146.35 C 88.56 148.59 82.32 149.31 76.56 151.59 C 76.58 155.59 76.57 159.59 76.59 163.59 C 85.87 160.90 95.47 159.25 104.42 155.51 C 104.89 143.03 106.33 130.61 107.64 118.19 C 101.24 119.21 94.84 120.35 88.37 120.86 C 88.40 114.07 88.34 107.29 88.42 100.51 C 95.38 100.47 102.33 100.60 109.29 100.44 C 109.57 96.69 109.81 92.93 110.33 89.20 C 99.08 88.99 87.83 89.10 76.57 89.14 Z" />
</g>
</svg>
